# xmcd
#
# Track frame offsets:
#	150
#	11529
#	26908
#	38456
#	57431
#	75501
#	101711
#	121667
#	140312
#	157161
#	170238
#
# Disc length: 2744 seconds
#
# Revision: 0
# Processed by: cddbd v1.5.2PL0 Copyright (c) Steve Scherf et al.
# Submitted via: EasyCDDAExtractor 10.0.2.1
#
DISCID=890ab60b
DTITLE=Ellsworth - American Compost
DYEAR=2006
DGENRE=
TTITLE0=Back To New York City
TTITLE1=Mr Ellsworth's Sunday morning Song
TTITLE2=Every Time She Thinks About Marie
TTITLE3=Forward Motion
TTITLE4=Can Anyone Hear Me?
TTITLE5=American Compost
TTITLE6=Mirror Man
TTITLE7=She's So Sweet
TTITLE8=It Doesn't Have To Be This Way
TTITLE9=Baby I'm Out Of My Head
TTITLE10=Madam Freud
EXTD=
EXTT0=
EXTT1=
EXTT2=
EXTT3=
EXTT4=
EXTT5=
EXTT6=
EXTT7=
EXTT8=
EXTT9=
EXTT10=
PLAYORDER=
